inDegrees=no
num_controls=7
num_derivatives=13
num_iterations=127
num_multipliers=7
num_parameters=0
num_slacks=7
num_states=26
objective=0.496920
objective_accelerations=0.042479
objective_balance=0.003605
objective_effort=0.039382
objective_height=0.405935
objective_ligament=0.005519
solver_duration=1444.952168
status=Solve_Succeeded
success=true
DataType=double
version=3
OpenSimVersion=4.5
endheader
time	/jointset/ground_pelvis/pelvis_tilt/value	/jointset/ground_pelvis/pelvis_tx/value	/jointset/ground_pelvis/pelvis_ty/value	/jointset/hip_r/hip_flexion_r/value	/jointset/hip_r/hip_adduction_r/value	/jointset/hip_r/hip_rotation_r/value	/jointset/back/lumbar_extension/value	/jointset/patellofemoral_r/patellar_flexion_r/value	/jointset/knee_r/knee_flexion_r/value	/jointset/knee_r/knee_adduction_r/value	/jointset/knee_r/knee_rotation_r/value	/jointset/ankle_r/ankle_angle_r/value	/jointset/subtalar_r/subtalar_angle_r/value	/jointset/ground_pelvis/pelvis_tilt/speed	/jointset/ground_pelvis/pelvis_tx/speed	/jointset/ground_pelvis/pelvis_ty/speed	/jointset/hip_r/hip_flexion_r/speed	/jointset/hip_r/hip_adduction_r/speed	/jointset/hip_r/hip_rotation_r/speed	/jointset/back/lumbar_extension/speed	/jointset/patellofemoral_r/patellar_flexion_r/speed	/jointset/knee_r/knee_flexion_r/speed	/jointset/knee_r/knee_adduction_r/speed	/jointset/knee_r/knee_rotation_r/speed	/jointset/ankle_r/ankle_angle_r/speed	/jointset/subtalar_r/subtalar_angle_r/speed	/forceset/tau_hip_flexion_r	/forceset/tau_hip_adduction_r	/forceset/tau_hip_rotation_r	/forceset/tau_knee_flexion_r	/forceset/tau_ankle_angle_r	/forceset/tau_subtalar_angle_r	/forceset/tau_lumbar_extension	lambda_cid13_p0	lambda_cid14_p0	lambda_cid14_p1	lambda_cid14_p2	lambda_cid14_p3	lambda_cid14_p4	lambda_cid14_p5	/jointset/ground_pelvis/pelvis_tilt/accel	/jointset/ground_pelvis/pelvis_tx/accel	/jointset/ground_pelvis/pelvis_ty/accel	/jointset/hip_r/hip_flexion_r/accel	/jointset/hip_r/hip_adduction_r/accel	/jointset/hip_r/hip_rotation_r/accel	/jointset/back/lumbar_extension/accel	/jointset/patellofemoral_r/patellar_flexion_r/accel	/jointset/knee_r/knee_flexion_r/accel	/jointset/knee_r/knee_adduction_r/accel	/jointset/knee_r/knee_rotation_r/accel	/jointset/ankle_r/ankle_angle_r/accel	/jointset/subtalar_r/subtalar_angle_r/accel	gamma_cid13_p0	gamma_cid14_p0	gamma_cid14_p1	gamma_cid14_p2	gamma_cid14_p3	gamma_cid14_p4	gamma_cid14_p5
1.5	-0.1512571690978108	0.0425192738388316	0.8513580982680384	0.7838573727308055	-0.2221195162767432	-0.1404754940124282	-0.2869642858985659	0.7201573803320683	0.720157380332225	0.01289455873506502	0.1745257730071827	0.2632525477918786	0.06740445642292253	0.3449481371479082	0.1595102404413289	0.4119068081805352	-1.770933682081846	0.006200735549920169	-0.2481344329528441	0.6995606080740727	-1.949251291427141	-1.949251291427157	0.3684524519456628	3.340361541527477e-05	-0.6249740143728102	-0.1784730373503019	-0.09338531981526607	-0.0162302825038515	0.01002263734934623	-0.3309823435033961	0.06467639026647011	-0.01015982945216961	0.1406044582508884	-30.15412657634431	-20.4283445598261	-4.584379452305933	-2.698359186758994	2.471201108492608	-654.0399379182168	57.13709316265043	0.1837810520488553	0.3598540401623224	-0.5640126864276561	-0.87015898790282	-0.1029116055817414	-0.6259668545095076	1.350182494654958	-1.10967759996846	-1.109677599968496	0.4383120278209926	-0.07274242205401701	-0.5787668896168042	-0.1431613198258818	3.554643491374668e-08	-3.601215487610728e-07	-2.779614359121268e-06	-2.799992019485755e-06	5.293911662080964e-07	-3.116271623495543e-07	-5.279047495686711e-07
1.51	-0.1477991057354631	0.04413214213393372	0.8554480911708159	0.7661070524968042	-0.2220619630010505	-0.1429938277846657	-0.2799020731476461	0.7006119569638467	0.7006119569639542	0.01659621405160761	0.1745262913759991	0.2569749536184383	0.06561396692940052	0.3466114265114638	0.1630387001132913	0.4060078457492238	-1.778892441885654	0.005320160339459004	-0.2555270249841006	0.7127816998872184	-1.95956611484533	-1.95956611484512	0.3718575638851931	7.0748127163074e-05	-0.6304544642589319	-0.1795819587052949	-0.0870783969673182	-0.01803636910765787	0.0093043783043336	-0.3273794538804399	0.06805768587647645	-0.01073028950955882	0.1348647013179008	-31.28981843827317	-19.16271743111188	-4.469403540769679	-2.877889217358399	2.023322195672675	-650.2431681412696	57.31818396569691	0.1496088970430734	0.3457402646807642	-0.6154963383752091	-0.7230863407469461	-0.07981540023391888	-0.7952820654728129	1.293036191349799	-0.95230164828415	-0.9523016482502964	0.287907017045874	0.04148593208985493	-0.5190441214222067	-0.08909675263121838	3.532222555280827e-08	-3.663060552245425e-07	-2.757537193191692e-06	-2.868431027292208e-06	5.301363579104695e-07	-3.347191990912548e-07	-4.039630565182784e-07
1.52	-0.1443260082757695	0.04577957469254918	0.8594765627859019	0.7482842742919419	-0.2220130524617533	-0.1455859628148242	-0.2727106567452531	0.6809714019743363	0.6809714019743935	0.02033117973555109	0.1745270857987888	0.2506452829294744	0.06381352038046954	0.3479549566163753	0.1664230931439951	0.3996025506422235	-1.785425276254546	0.004472188270774542	-0.2628946845369201	0.7254013383685721	-1.968277615685121	-1.968277615684686	0.3751145254257967	8.861441093761596e-05	-0.6353893174775485	-0.1804644484320961	-0.08077147411937133	-0.01984245571146633	0.00858611925931148	-0.3237765642574837	0.07143898148648188	-0.01130074956695092	0.1291249443849127	-32.40605885079555	-17.90470723906456	-4.361227059754458	-3.050088982579638	1.601108375187198	-646.5537303070585	57.44712864626582	0.1198292003201304	0.3310407119105405	-0.6652792215654659	-0.5849739009193632	-0.09639097722638942	-0.620980358822089	1.229891828296614	-0.7890130842889911	-0.7890130842889836	0.4086819480356111	-0.07663806764868324	-0.4696475561158347	-0.09787499418752529	4.574425115550041e-08	-3.227489225543108e-07	-2.580601825986798e-06	-2.524736592877633e-06	4.843390939268409e-07	-3.020901762888379e-07	-3.782508645406692e-07
1.53	-0.140841105932659	0.04746014556748161	0.8634385005654346	0.7304033198209974	-0.2219727628778486	-0.148250201355044	-0.2653959453733067	0.661251971929224	0.6612519719293307	0.02409948238086834	0.1745273153013169	0.244269060295467	0.06200493730804285	0.3489723470548505	0.1696673066005258	0.392707801183684	-1.790521703341207	0.0036148310215675	-0.2700371261821591	0.737444503826358	-1.97532395270245	-1.975323952702441	0.3784336536168374	1.488092302878969e-05	-0.639743190489347	-0.1811788541174848	-0.07447870839236206	-0.02155754194109541	0.007694787110584065	-0.3202500578546146	0.07504699144578082	-0.01183342950086471	0.1234350415191817	-33.49062805730884	-16.5808023542508	-4.226422958418338	-3.225030890515938	1.072064148730616	-643.0592512988503	57.6221335137489	0.084708480793034	0.3176129957595124	-0.7131856390231884	-0.4354076425846333	-0.07645335312650903	-0.7735185570150004	1.177064075477267	-0.6197937377753209	-0.6197937378393612	0.276299071509975	0.03564344708224017	-0.4013925958936512	-0.04770630253761411	6.747790140704986e-08	-2.263412983045219e-07	-2.239129619926879e-06	-1.743150376103222e-06	3.890904707768359e-07	-2.102575277207968e-07	-4.569075174528912e-07
